<svg viewBox="0 0 24 24" focusable="false" class="chakra-icon css-pv6ryy" xmlns="http://www.w3.org/2000/svg" aria-hidden="true"><path fill-rule="evenodd" clip-rule="evenodd" d="M12 0.272003L5.636 6.636C4.37734 7.89468 3.52018 9.49833 3.17292 11.2442C2.82566 12.99 3.0039 14.7996 3.68509 16.4441C4.36628 18.0886 5.51984 19.4942 6.99988 20.4832C8.47992 21.4721 10.22 21.9999 12 21.9999C13.78 21.9999 15.5201 21.4721 17.0001 20.4832C18.4802 19.4942 19.6337 18.0886 20.3149 16.4441C20.9961 14.7996 21.1743 12.99 20.8271 11.2442C20.4798 9.49833 19.6227 7.89468 18.364 6.636L12 0.272003ZM13 9V12H16V14H13V17H11V14H8V12H11V9H13Z" fill="#26282A"></path></svg>