<svg
                        viewBox="0 0 24 24"
                        focusable="false"
                        class="chakra-icon chakra-icon css-603ab2"
                        xmlns="http://www.w3.org/2000/svg"
                      >
                        <path
                          d="M12 6.99999C14.1217 6.99999 16.1566 7.84285 17.6569 9.34314C19.1571 10.8434 20 12.8783 20 15C20 17.1217 19.1571 19.1566 17.6569 20.6568C16.1566 22.1571 14.1217 23 12 23C9.87827 23 7.84344 22.1571 6.34315 20.6568C4.84285 19.1566 4 17.1217 4 15C4 12.8783 4.84285 10.8434 6.34315 9.34314C7.84344 7.84285 9.87827 6.99999 12 6.99999ZM12 8.99999C10.4087 8.99999 8.88258 9.63213 7.75736 10.7574C6.63214 11.8826 6 13.4087 6 15C6 16.5913 6.63214 18.1174 7.75736 19.2426C8.88258 20.3679 10.4087 21 12 21C13.5913 21 15.1174 20.3679 16.2426 19.2426C17.3679 18.1174 18 16.5913 18 15C18 13.4087 17.3679 11.8826 16.2426 10.7574C15.1174 9.63213 13.5913 8.99999 12 8.99999ZM18 1.99999V4.99999L16.637 6.13799C15.5059 5.54458 14.2711 5.17483 13 5.04899V1.99999H18ZM11 1.99899V5.04899C9.72935 5.17464 8.49482 5.54405 7.364 6.13699L6 4.99999V1.99999L11 1.99899Z"
                          fill="orange" 
                        ></path>
                        <path
                          d="M12 10.5822L13.436 13.5611L16.4149 14.9971L13.436 16.4332L12 19.412L10.564 16.4332L7.58508 14.9971L10.564 13.5611L12 10.5822Z"
                          fill="orange"
                        ></path>
                      </svg>