<svg width="308" height="191" viewBox="0 0 308 191" fill="none" xmlns="http://www.w3.org/2000/svg">
<g clip-path="url(#clip0_1094_12801)">
<path d="M-4.34612 64.7745L-3.36548 64.6367C-2.60045 67.3053 -1.27503 71.1879 0.806198 74.2657C2.89019 77.3476 5.64258 79.504 9.26915 79.0236C11.0939 78.782 12.7059 77.8622 14.2422 76.6502C15.2365 75.8657 16.1605 74.9933 17.0847 74.1206C17.6079 73.6266 18.1312 73.1325 18.6674 72.6542C20.114 71.3638 21.6311 70.215 23.3248 69.7824C25.0602 69.3391 26.907 69.6636 28.959 71.1503C30.996 72.6262 32.9912 75.2542 34.9486 78.4183C36.9134 81.5944 38.8746 85.3694 40.8262 89.187C41.0506 89.6259 41.2748 90.0653 41.4989 90.5045C43.2282 93.8933 44.9506 97.2688 46.6724 100.271C48.6211 103.668 50.5456 106.543 52.4461 108.403C54.2797 110.196 56.9941 111.07 60.2441 111.383C63.4886 111.695 67.1926 111.44 70.9341 111.045C72.2388 110.907 73.5513 110.751 74.8483 110.598C77.2481 110.314 79.5952 110.036 81.7425 109.887C85.0391 109.659 87.9973 109.721 90.0704 110.591C92.1092 111.447 94.1158 113.063 96.0751 114.885C97.0586 115.8 98.0409 116.777 99.0163 117.749L99.0941 117.826C100.045 118.774 100.99 119.716 101.934 120.6C103.881 122.424 105.781 123.964 107.651 124.787C109.497 125.6 111.279 125.704 113.063 124.705C114.949 123.65 116.86 121.933 118.804 119.898C120.23 118.405 121.654 116.762 123.088 115.108C123.606 114.51 124.126 113.91 124.647 113.316C126.601 111.089 128.575 108.94 130.56 107.276C132.538 105.618 134.578 104.398 136.668 104.102C138.775 103.804 140.847 104.454 142.862 105.718C144.874 106.979 146.863 108.872 148.83 111.124C151.909 114.648 154.989 119.121 158.049 123.564C158.894 124.791 159.737 126.016 160.579 127.218C164.448 132.746 168.258 135.572 171.988 136.359C175.704 137.143 179.465 135.929 183.303 133.093C186.159 130.982 189.007 128.016 191.891 125.013C192.909 123.953 193.932 122.888 194.961 121.854C196.919 119.888 198.894 118.043 200.88 116.606C202.863 115.17 204.889 114.118 206.948 113.772C208.991 113.429 211.744 113.692 214.794 114.224C217.726 114.736 220.989 115.508 224.249 116.28L224.683 116.383C228.095 117.19 231.485 117.983 234.509 118.476C237.547 118.972 240.149 119.153 242.006 118.776C249.029 117.349 254.325 110.691 258.963 101.189C262.632 93.67 265.832 84.4957 269.145 74.9994C270.008 72.527 270.878 70.0328 271.766 67.5403C276.054 55.5021 280.757 43.5152 287.019 34.3863C293.287 25.2484 301.168 18.9049 311.818 18.2959L312.347 18.2657L312.347 18.7951L312.347 192.296L312.347 192.796L311.847 192.796L-3.84619 192.796L-4.34619 192.796L-4.34619 192.296L-4.34612 64.7745Z" fill="url(#paint0_linear_1094_12801)" stroke="white"/>
</g>
<defs>
<linearGradient id="paint0_linear_1094_12801" x1="154" y1="192.593" x2="154" y2="13.4291" gradientUnits="userSpaceOnUse">
<stop stop-color="#cfd8dc" stop-opacity="0"/>
<stop offset="1" stop-color="#cfd8dc" stop-opacity="0.44"/>
</linearGradient>
<clipPath id="clip0_1094_12801">
<rect y="0.181763" width="308" height="190" rx="12" fill="white"/>
</clipPath>
</defs>
</svg>
