<svg width="308" height="191" viewBox="0 0 308 191" fill="none" xmlns="http://www.w3.org/2000/svg">
<g clip-path="url(#clip0_1094_12796)">
<path d="M-4.24853 118.894L-4.35008 119.028V119.196V195.364V195.864H-3.85008H311.84H312.34V195.364V148.517V147.989L311.813 148.017C304.781 148.394 298.661 144.305 293.258 137.635C287.858 130.969 283.248 121.811 279.24 112.26C276.13 104.846 273.393 97.2236 270.934 90.3728C270.225 88.3994 269.54 86.4901 268.875 84.6683C267.391 80.6004 266.008 76.9651 264.705 74.0394C263.409 71.13 262.167 68.8619 260.946 67.5768C259.761 66.3288 258.653 65.5255 257.579 65.1116C256.491 64.6928 255.462 64.683 254.468 64.978C253.487 65.2688 252.56 65.8499 251.649 66.5796C250.738 67.3097 249.813 68.2133 248.847 69.1725C248.751 69.2685 248.653 69.3651 248.556 69.4623C244.726 73.2705 240.037 77.9337 231.921 77.9337C227.844 77.9337 225.007 75.9775 222.832 72.9182C220.639 69.8333 219.144 65.658 217.793 61.3009C217.491 60.3272 217.196 59.3438 216.902 58.363C215.89 54.9882 214.887 51.6441 213.639 48.8314C212.032 45.2092 209.951 42.3013 206.751 41.361C203.695 40.4632 201.329 40.5433 199.359 41.2122C197.399 41.8774 195.884 43.1081 194.506 44.4087C194.112 44.7802 193.731 45.1556 193.353 45.5268C191.046 47.7954 188.9 49.9058 185.217 49.9985C181.457 50.0932 178.851 48.7849 176.769 46.7619C174.733 44.784 173.198 42.1269 171.598 39.3561C171.54 39.2561 171.482 39.1559 171.424 39.0556C169.777 36.2053 168.042 33.2655 165.622 31.0485C163.179 28.8111 160.049 27.3181 155.642 27.3181C151.173 27.3181 147.276 29.7444 143.864 33.2542C140.451 36.7655 137.466 41.42 134.818 46.0057C133.738 47.8741 132.719 49.7233 131.749 51.4841C130.321 54.0743 128.999 56.4731 127.747 58.4598C126.699 60.1228 125.727 61.4515 124.818 62.3304C123.896 63.2219 123.136 63.5574 122.495 63.4684C120.949 63.2541 119.303 61.9031 117.553 59.7389C115.825 57.6005 114.088 54.7882 112.332 51.8538C112.063 51.4042 111.794 50.9518 111.524 50.4988C110.041 48.0081 108.547 45.499 107.052 43.3445C105.296 40.8126 103.486 38.6878 101.62 37.6656C99.7002 36.6135 97.7797 36.7524 95.9204 37.5544C94.0846 38.3463 92.279 39.7949 90.5189 41.41C89.6604 42.1978 88.8027 43.0348 87.9517 43.8653L87.877 43.9382C86.9992 44.7948 86.1283 45.6431 85.2588 46.4351C83.512 48.0261 81.8121 49.3502 80.1439 50.0359C78.4944 50.7139 76.8329 50.7831 75.1293 50.588C73.9446 50.4523 72.7756 50.1954 71.578 49.9321C71.0288 49.8114 70.4737 49.6894 69.9083 49.5771C68.1392 49.2259 66.3145 48.983 64.4709 49.2761C62.6128 49.5715 60.7666 50.4058 58.942 52.1538C57.9959 53.0602 57.0874 54.5586 56.2046 56.4378C55.3163 58.3288 54.4325 60.6535 53.5528 63.2539C51.8738 68.2172 50.196 74.2275 48.5229 80.2207C48.4431 80.5067 48.3632 80.7928 48.2834 81.0787C46.5284 87.3627 44.7791 93.5711 43.032 98.5189C42.1583 100.993 41.2901 103.137 40.4281 104.812C39.5571 106.504 38.7255 107.648 37.9526 108.197C36.3204 109.355 34.7092 109.575 33.0789 109.247C31.4213 108.914 29.7329 108.012 27.9897 106.889C27.2092 106.386 26.4283 105.846 25.6394 105.301C25.5505 105.239 25.4615 105.178 25.3724 105.116C24.4957 104.511 23.6096 103.904 22.7211 103.352C20.9513 102.254 19.1231 101.344 17.2603 101.103C13.52 100.617 9.86438 102.841 6.77586 105.637C3.67198 108.446 1.01844 111.946 -0.732102 114.256L-0.740844 114.267L-4.24853 118.894Z" fill="url(#paint0_linear_1094_12796)" stroke="#F16769"/>
</g>
<defs>
<linearGradient id="paint0_linear_1094_12796" x1="153.995" y1="27.5307" x2="153.995" y2="200.545" gradientUnits="userSpaceOnUse">
<stop stop-color="#EA3C51" stop-opacity="0.44"/>
<stop offset="1" stop-color="#EA3C51" stop-opacity="0"/>
</linearGradient>
<clipPath id="clip0_1094_12796">
<rect y="0.181763" width="308" height="190" rx="12" fill="white"/>
</clipPath>
</defs>
</svg>
